<?xml version="1.0" standalone="no"?>
<!DOCTYPE svg PUBLIC "-//W3C//DTD SVG 20010904//EN"
 "http://www.w3.org/TR/2001/REC-SVG-20010904/DTD/svg10.dtd">
<svg version="1.0" xmlns="http://www.w3.org/2000/svg"
 width="700.000000pt" height="700.000000pt" viewBox="0 0 700.000000 700.000000"
 preserveAspectRatio="xMidYMid meet">
<metadata>
Created by potrace 1.14, written by Peter Selinger 2001-2017
</metadata>
<g transform="translate(0.000000,700.000000) scale(0.100000,-0.100000)"
fill="#000000" stroke="none">
<path d="M3333 6980 c-136 -48 -266 -149 -327 -252 -52 -89 -65 -148 -67 -296
-1 -116 2 -146 20 -195 31 -88 84 -168 155 -234 99 -93 197 -141 337 -163 93
-15 162 0 289 62 109 53 221 161 268 258 111 228 66 486 -118 670 -122 123
-239 170 -415 169 -61 0 -107 -6 -142 -19z m174 -210 c35 -21 69 -75 53 -85
-5 -3 -29 10 -54 29 -57 43 -98 53 -131 32 -37 -25 -33 -65 14 -123 50 -62
259 -268 265 -262 9 9 36 123 36 152 0 23 -6 30 -32 40 l-33 12 55 6 c65 7 77
0 57 -32 -8 -13 -18 -44 -22 -69 -3 -25 -13 -66 -22 -91 -15 -44 -15 -48 3
-72 10 -14 36 -35 56 -47 31 -17 44 -19 73 -11 43 12 55 -2 20 -25 -51 -33
-136 -22 -207 28 -14 10 -27 8 -71 -15 -145 -73 -309 -30 -361 95 -40 96 5
208 97 241 10 4 16 13 13 20 -27 65 -28 85 -10 124 34 68 133 95 201 53z"/>
<path d="M3293 6530 c-37 -22 -48 -53 -40 -112 7 -54 51 -107 117 -140 65 -34
126 -36 189 -8 l44 20 -24 26 c-122 131 -228 234 -240 234 -8 0 -29 -9 -46
-20z"/>
<path d="M3464 4613 c3 -571 9 -1512 12 -2090 l7 -1053 -1552 0 -1551 0 0 -25
0 -25 3045 0 3045 0 0 25 0 25 -1473 0 -1474 0 -6 1157 c-4 636 -7 1576 -7
2090 l0 933 -26 0 -27 0 7 -1037z"/>
<path d="M439 4958 c-8 -7 -38 -40 -65 -73 -172 -207 -281 -419 -345 -674 -29
-111 -29 -118 -29 -392 0 -217 4 -297 16 -357 56 -272 233 -617 390 -761 l44
-41 1128 0 c1081 0 1130 1 1145 18 16 17 17 109 17 1121 0 737 -3 1109 -10
1122 -28 51 15 49 -1173 49 -868 0 -1106 -3 -1118 -12z m1291 -426 c70 -28
123 -71 158 -130 25 -43 27 -56 27 -147 0 -92 -3 -106 -32 -168 -32 -68 -120
-171 -154 -182 -11 -4 -19 -11 -19 -16 0 -12 247 -383 305 -459 25 -32 59 -70
77 -85 79 -67 180 -83 263 -43 34 17 50 20 62 12 27 -17 26 -32 -2 -58 -60
-56 -217 -92 -323 -75 -153 24 -228 98 -437 429 -64 102 -124 192 -133 201
-14 12 -34 15 -104 11 l-88 -4 0 -253 c0 -140 4 -265 10 -279 5 -15 24 -32 45
-41 26 -10 36 -20 33 -32 -3 -16 -19 -18 -183 -18 l-180 0 -3 28 c-3 24 0 27
27 27 63 0 61 -16 61 620 0 631 0 622 -58 628 -26 3 -32 8 -32 26 0 12 3 26 7
30 4 4 145 6 313 4 286 -3 308 -5 360 -26z"/>
<path d="M1332 4194 l3 -289 100 1 c134 0 179 14 235 73 53 54 70 102 70 192
-1 123 -60 228 -155 274 -47 23 -74 29 -156 33 l-99 5 2 -289z"/>
<path d="M4245 4946 c-14 -14 -26 -41 -30 -67 -3 -24 -5 -522 -3 -1106 l3
-1061 24 -26 24 -26 1133 0 1132 0 47 52 c106 118 250 363 309 526 165 460
115 987 -134 1406 -62 103 -159 234 -221 296 l-31 30 -1114 0 -1115 0 -24 -24z
m1278 -382 c48 -9 94 -22 101 -29 18 -19 68 -164 62 -181 -9 -25 -36 -15 -89
31 -75 66 -144 97 -227 103 -119 8 -210 -43 -256 -143 -26 -55 -29 -91 -14
-147 23 -82 83 -125 266 -192 66 -24 143 -55 173 -70 70 -36 157 -118 187
-177 96 -191 -2 -465 -193 -540 -52 -20 -82 -23 -298 -29 -132 -4 -251 -4
-265 0 l-25 6 -3 200 c-2 178 -1 200 15 211 33 25 40 15 46 -67 12 -182 109
-261 321 -263 103 -1 179 22 234 69 109 93 115 227 14 329 -44 44 -88 67 -250
129 -204 79 -283 147 -324 278 -56 183 21 369 189 457 79 41 200 50 336 25z"/>
<path d="M2508 1131 c-18 -16 -30 -32 -26 -36 12 -12 88 37 88 57 0 17 -31 7
-62 -21z"/>
<path d="M3860 1125 c-19 -19 -28 -35 -21 -35 22 0 70 30 81 50 18 34 -22 24
-60 -15z"/>
<path d="M1160 1067 c-24 -8 -40 -23 -53 -49 -33 -68 -4 -107 93 -122 53 -8
70 -21 70 -52 0 -65 -115 -88 -142 -29 -17 37 -30 30 -26 -12 l3 -38 59 -3
c98 -5 146 27 146 99 0 47 -21 65 -94 78 -33 6 -63 17 -68 24 -25 39 10 87 63
87 26 0 59 -27 59 -48 0 -7 5 -12 10 -12 12 0 14 67 3 73 -21 13 -92 15 -123
4z"/>
<path d="M1363 1073 c-37 -5 -43 -18 -13 -26 19 -5 20 -14 20 -125 0 -94 -3
-124 -15 -136 -8 -8 -15 -17 -15 -20 0 -3 52 -6 115 -6 l115 0 0 40 c0 46 -11
52 -28 15 -10 -22 -18 -25 -66 -25 -53 0 -54 1 -58 32 -9 55 4 83 40 86 23 2
35 -2 44 -17 20 -33 28 -25 28 29 0 28 -4 50 -10 50 -5 0 -10 -6 -10 -14 0
-17 -22 -26 -61 -26 l-30 0 3 58 3 57 37 3 c30 3 43 -2 61 -22 27 -29 37 -25
37 15 0 19 -6 28 -22 33 -24 6 -121 6 -175 -1z"/>
<path d="M1642 1065 c-43 -19 -69 -75 -52 -115 12 -30 41 -45 103 -54 50 -7
67 -21 67 -57 0 -34 -32 -59 -77 -59 -32 0 -73 28 -73 50 0 6 -4 10 -10 10
-17 0 -12 -67 6 -74 30 -12 115 -6 145 10 41 21 65 76 49 115 -12 29 -53 49
-99 49 -62 0 -94 63 -49 94 42 29 108 9 108 -32 0 -7 5 -12 10 -12 6 0 10 6
10 13 0 6 3 22 6 34 5 18 0 23 -33 32 -50 14 -71 13 -111 -4z"/>
<path d="M1927 1066 c-46 -17 -61 -29 -86 -70 -32 -51 -36 -98 -13 -150 30
-66 69 -88 154 -84 58 3 71 8 99 33 83 78 78 214 -10 259 -44 23 -101 28 -144
12z m107 -37 c94 -74 62 -249 -47 -249 -80 0 -125 69 -119 183 1 17 14 41 31
58 37 36 94 40 135 8z"/>
<path d="M2188 1073 c-32 -5 -37 -18 -9 -26 23 -6 31 -58 23 -173 -4 -73 -8
-87 -23 -91 -41 -11 -16 -23 46 -23 37 0 65 4 65 10 0 6 -7 10 -15 10 -30 0
-37 39 -30 156 l7 114 32 0 c37 0 66 -25 66 -58 0 -24 -44 -62 -71 -62 -31 0
-25 -12 54 -119 31 -41 45 -51 68 -51 16 0 29 2 29 5 0 3 -25 39 -55 79 -50
68 -53 75 -35 81 56 18 79 102 35 131 -26 17 -133 27 -187 17z"/>
<path d="M3535 1070 c-27 -6 -28 -8 -10 -15 32 -14 35 -24 35 -137 0 -115 -4
-138 -26 -138 -8 0 -14 -4 -14 -10 0 -6 29 -10 66 -10 l67 0 -27 25 c-25 23
-26 28 -26 133 0 114 6 132 46 132 52 0 75 -74 32 -104 -12 -9 -30 -16 -40
-16 -29 0 -21 -19 38 -97 47 -61 61 -73 85 -73 16 0 29 2 29 5 0 2 -24 37 -54
77 l-55 73 28 17 c65 42 66 113 1 135 -38 13 -128 15 -175 3z"/>
<path d="M3983 1073 c-39 -5 -39 -7 -12 -34 18 -18 20 -30 17 -132 -2 -62 -7
-120 -12 -131 -8 -17 -4 -18 85 -15 79 3 99 8 127 27 97 70 94 227 -5 268 -37
16 -145 25 -200 17z m162 -37 c62 -26 86 -126 45 -193 -22 -37 -41 -48 -93
-58 -60 -12 -67 1 -67 126 0 84 3 111 16 123 19 20 54 20 99 2z"/>
<path d="M4553 1068 c-138 -31 -160 -227 -33 -293 43 -22 152 -20 181 4 34 27
21 33 -31 15 -35 -12 -53 -13 -80 -5 -75 22 -121 107 -97 179 15 45 53 73 110
79 45 5 76 -11 89 -48 7 -19 14 -10 22 28 7 31 6 32 -31 38 -76 13 -89 13
-130 3z"/>
<path d="M5230 1063 c-89 -45 -67 -163 30 -163 11 0 36 -7 55 -14 27 -11 35
-21 35 -40 0 -31 -43 -66 -81 -66 -28 0 -69 30 -69 50 0 6 -5 10 -11 10 -6 0
-9 -16 -7 -37 l3 -38 59 -3 c33 -2 72 2 88 9 52 21 77 109 41 142 -10 8 -44
20 -76 26 -73 13 -77 16 -77 50 0 34 28 61 63 61 27 0 67 -30 67 -50 0 -5 5
-10 10 -10 12 0 14 66 3 73 -5 3 -28 8 -53 11 -33 5 -54 2 -80 -11z"/>
<path d="M6023 1069 c-93 -27 -97 -149 -5 -164 101 -17 129 -43 98 -90 -30
-46 -110 -44 -131 3 -12 28 -21 28 -28 0 -11 -41 9 -58 69 -58 95 0 144 37
144 109 0 39 -28 61 -89 68 -63 7 -83 21 -83 58 0 34 25 55 64 55 27 0 68 -30
68 -50 0 -5 5 -10 10 -10 6 0 10 16 10 35 0 31 -3 35 -37 44 -44 12 -47 12
-90 0z"/>
<path d="M912 1058 c-5 -7 -31 -65 -57 -128 -26 -63 -58 -125 -71 -137 -13
-12 -24 -25 -24 -28 0 -3 23 -5 50 -5 48 0 66 12 36 23 -18 7 -10 47 12 65 9
6 39 12 68 12 51 0 53 -1 64 -36 11 -31 10 -37 -7 -49 -16 -13 -12 -14 40 -15
57 0 69 8 43 29 -14 12 -39 66 -96 204 -32 78 -40 87 -58 65z m30 -115 c9 -26
15 -49 14 -51 -2 -2 -22 -2 -44 0 l-41 3 21 48 c11 26 23 47 27 47 3 0 14 -21
23 -47z"/>
<path d="M2450 1060 c0 -5 6 -10 14 -10 21 0 26 -23 26 -135 0 -112 -5 -135
-26 -135 -8 0 -14 -4 -14 -10 0 -6 27 -10 60 -10 33 0 60 4 60 10 0 6 -6 10
-14 10 -21 0 -26 23 -26 135 0 112 5 135 26 135 8 0 14 5 14 10 0 6 -27 10
-60 10 -33 0 -60 -4 -60 -10z"/>
<path d="M2730 1048 c-68 -167 -105 -246 -121 -260 -28 -24 -24 -28 33 -28 51
0 51 0 32 21 -17 19 -17 23 -3 47 13 23 22 27 68 30 30 2 59 -2 67 -9 19 -15
18 -58 -1 -65 -33 -13 -12 -24 45 -24 58 0 75 10 46 27 -17 10 -43 62 -86 173
-46 117 -61 133 -80 88z m39 -105 l21 -53 -45 0 c-29 0 -45 4 -45 13 1 16 39
101 44 96 3 -2 14 -28 25 -56z"/>
<path d="M3030 1060 c0 -5 9 -10 19 -10 28 0 31 -18 31 -169 0 -145 -9 -181
-44 -168 -12 5 -16 1 -16 -17 0 -21 3 -23 27 -17 15 4 36 20 47 35 19 24 21
44 24 172 3 130 5 146 23 157 33 20 21 27 -46 27 -37 0 -65 -4 -65 -10z"/>
<path d="M3193 1046 c25 -24 26 -28 24 -131 -2 -106 -2 -107 26 -131 23 -20
39 -24 88 -24 33 0 69 5 81 11 33 18 48 71 48 169 0 79 2 91 20 102 33 21 23
28 -35 28 -54 0 -74 -13 -35 -23 18 -5 20 -14 20 -107 0 -94 -2 -103 -25 -125
-30 -31 -83 -33 -116 -6 -21 16 -23 29 -27 117 l-5 98 29 23 29 23 -74 0 -74
0 26 -24z"/>
<path d="M3800 1060 c0 -5 9 -10 20 -10 11 0 20 -1 20 -2 1 -2 3 -56 6 -120
l6 -117 -28 -26 -27 -25 67 0 c63 0 88 12 46 23 -19 5 -20 14 -20 132 0 118 1
127 20 132 41 11 18 23 -45 23 -37 0 -65 -4 -65 -10z"/>
<path d="M4304 1045 c27 -25 28 -27 24 -136 -2 -91 -6 -113 -20 -123 -29 -21
-21 -26 42 -26 58 0 80 12 40 23 -19 5 -20 14 -20 132 0 118 1 127 20 132 42
11 17 23 -46 23 l-67 0 27 -25z"/>
<path d="M4861 1018 c-43 -116 -91 -214 -110 -230 -31 -24 -26 -28 29 -28 49
0 66 12 34 24 -11 4 -13 13 -9 28 11 35 34 48 90 48 45 0 53 -3 63 -25 12 -25
7 -55 -9 -55 -5 0 -9 -4 -9 -10 0 -5 25 -10 55 -10 30 0 55 3 55 7 0 4 -8 16
-19 27 -10 12 -37 68 -60 124 -59 144 -63 152 -77 152 -7 0 -22 -24 -33 -52z
m68 -120 c1 -5 -19 -8 -43 -8 l-44 0 21 55 22 56 22 -48 c12 -26 22 -51 22
-55z"/>
<path d="M5649 1033 c-24 -74 -108 -243 -123 -249 -32 -12 -15 -24 34 -24 53
0 60 5 34 25 -14 10 -15 15 -4 36 18 34 28 39 86 39 46 0 52 -3 58 -24 3 -13
8 -31 12 -39 3 -9 -3 -17 -18 -23 -18 -6 -10 -8 36 -11 32 -2 61 -2 64 2 3 3
-4 15 -16 28 -11 12 -42 74 -67 137 -64 156 -74 167 -96 103z m60 -135 c1 -5
-20 -8 -45 -8 -50 0 -51 1 -17 80 l15 35 24 -50 c12 -27 23 -53 23 -57z"/>
<path d="M5437 803 c-15 -14 -7 -43 12 -43 24 0 33 13 25 34 -6 16 -25 21 -37
9z"/>
<path d="M5874 795 c-4 -9 -2 -21 4 -27 15 -15 44 -1 40 19 -4 23 -36 29 -44
8z"/>
<path d="M2434 273 c4 -8 6 -17 6 -19 0 -2 18 -1 40 2 l40 7 0 -116 c0 -83 -4
-117 -12 -120 -7 -3 6 -6 30 -6 39 -1 42 1 32 18 -5 11 -10 65 -10 121 l0 101
42 -3 c31 -2 43 1 45 12 3 13 -15 15 -107 16 -93 1 -110 -1 -106 -13z"/>
<path d="M2830 283 c-63 -23 -81 -103 -34 -149 20 -21 33 -25 64 -22 38 3 39
3 26 -17 -7 -11 -28 -30 -47 -43 -45 -31 -48 -44 -7 -30 48 16 86 45 103 78
46 90 -24 212 -105 183z m40 -33 c25 -13 42 -67 29 -91 -21 -40 -79 -15 -92
40 -12 48 20 74 63 51z"/>
<path d="M3041 277 c-39 -20 -62 -59 -67 -118 -13 -139 113 -203 167 -85 51
112 -16 246 -100 203z m55 -42 c24 -37 31 -138 10 -170 -39 -60 -89 -5 -90
101 -1 65 13 94 45 94 10 0 26 -11 35 -25z"/>
<path d="M3244 276 c-81 -35 -87 -219 -8 -255 36 -16 49 -14 82 14 48 40 63
144 30 207 -7 15 -58 49 -70 48 -2 -1 -17 -7 -34 -14z m63 -53 c19 -46 21
-146 3 -168 -19 -22 -47 -18 -66 10 -24 37 -31 138 -10 170 24 37 54 32 73
-12z"/>
<path d="M3460 283 c-49 -19 -66 -77 -32 -110 16 -17 16 -19 -10 -41 -50 -42
-26 -103 47 -116 87 -17 135 57 80 122 -22 26 -23 31 -10 42 18 15 20 74 2 88
-16 14 -58 22 -77 15z m46 -49 c16 -23 16 -27 1 -41 -14 -15 -18 -15 -41 1
-25 16 -34 45 -19 59 14 15 43 6 59 -19z m-2 -109 c37 -38 26 -85 -20 -85 -22
0 -54 33 -54 57 0 16 28 43 45 43 7 0 20 -7 29 -15z"/>
<path d="M3860 283 c-49 -19 -66 -77 -32 -110 16 -17 16 -19 -10 -41 -50 -43
-25 -103 48 -116 84 -16 133 58 80 121 -21 25 -22 31 -10 48 17 23 18 69 1 83
-16 14 -58 22 -77 15z m46 -49 c12 -17 12 -23 0 -39 -13 -18 -15 -18 -40 -2
-25 17 -34 46 -19 61 13 12 45 2 59 -20z m-2 -109 c37 -38 26 -85 -20 -85 -22
0 -54 33 -54 57 0 16 28 43 45 43 7 0 20 -7 29 -15z"/>
<path d="M4063 282 c-25 -4 -53 -37 -53 -63 0 -9 9 -27 19 -41 19 -24 19 -24
-5 -47 -65 -62 20 -150 104 -107 48 25 58 81 20 119 -22 21 -22 23 -5 40 47
46 -5 111 -80 99z m45 -34 c17 -17 15 -55 -4 -62 -31 -12 -70 45 -47 67 10 11
38 8 51 -5z m6 -127 c10 -11 16 -31 14 -48 -2 -23 -9 -29 -33 -31 -32 -4 -55
18 -55 53 0 44 44 59 74 26z"/>
<path d="M4242 275 c-31 -13 -51 -40 -39 -51 3 -3 19 4 35 16 24 18 33 20 51
11 48 -26 10 -136 -63 -184 -52 -35 -29 -57 60 -57 41 0 59 5 74 20 34 34 25
42 -37 34 l-58 -7 34 38 c34 39 61 92 61 119 0 20 -40 63 -65 70 -11 3 -35 -1
-53 -9z"/>
<path d="M4710 282 c-29 -6 -36 -12 -38 -34 -3 -27 11 -38 23 -18 3 6 31 10
60 10 l54 0 -43 -87 c-55 -109 -62 -133 -43 -133 8 0 19 6 24 13 18 23 115
238 110 243 -9 9 -110 13 -147 6z"/>
<path d="M2074 258 c20 -28 23 -207 4 -226 -9 -9 -5 -12 20 -12 31 0 42 13 22
25 -5 3 -10 43 -10 88 l0 82 91 -97 c50 -54 95 -98 100 -98 5 0 9 51 9 114 0
66 4 117 10 121 19 12 10 25 -18 25 l-28 0 4 -90 4 -90 -88 90 c-62 63 -95 90
-111 90 -23 0 -23 -1 -9 -22z"/>
<path d="M2355 150 l0 -130 30 0 30 0 0 130 0 130 -30 0 -30 0 0 -130z"/>
<path d="M3646 207 c-31 -40 -56 -78 -56 -85 0 -6 21 -12 48 -14 41 -3 47 -6
50 -26 2 -13 -4 -32 -13 -42 -15 -17 -15 -19 5 -25 31 -10 76 3 61 18 -6 6
-11 26 -11 44 0 26 4 33 20 33 11 0 20 6 20 14 0 7 -9 16 -20 19 -17 4 -20 14
-20 71 0 50 -3 66 -14 66 -8 0 -39 -33 -70 -73z m40 -63 c-6 -14 -56 -20 -56
-6 0 4 12 25 28 47 l27 40 3 -33 c2 -19 1 -40 -2 -48z"/>
<path d="M4468 238 c-49 -62 -78 -105 -78 -116 0 -6 21 -12 48 -14 40 -3 47
-6 50 -26 2 -13 -2 -30 -9 -38 -10 -13 -10 -17 2 -25 18 -11 40 -11 58 0 9 6
10 11 2 15 -6 4 -11 23 -11 42 0 27 4 34 20 34 11 0 20 7 20 15 0 8 -6 15 -14
15 -23 0 -29 18 -27 81 2 73 -12 77 -61 17z m18 -94 c-5 -13 -56 -21 -56 -9 0
3 12 24 28 47 l27 42 3 -33 c2 -18 1 -39 -2 -47z"/>
<path d="M4590 160 c-13 -9 -13 -11 0 -20 20 -13 57 -13 65 1 9 13 6 15 -25
22 -14 3 -32 2 -40 -3z"/>
</g>
</svg>
